REM MD5 40053c09750074248870dd7c00151ff7
FILE "MIP Club Demo 01 (Germany).bin" BINARY
  TRACK 01 MODE2/2352
    INDEX 01 00:00:00
  TRACK 02 AUDIO
    INDEX 00 25:49:28
    INDEX 01 25:51:28
  TRACK 03 AUDIO
    INDEX 00 27:49:45
    INDEX 01 27:51:45
REM LEADOUT 30:53:01
